<?xml version="1.0"?>
<!--Icons from directory ""-->
<svg xmlns="http://www.w3.org/2000/svg" width="50" height="150" viewBox="0 0 50 150">
    <svg xmlns:xlink="http://www.w3.org/1999/xlink" id="github_round" width="50" height="50" x="0px" y="0" enable-background="new 0 0 50 50" version="1.1" viewBox="0 0 50 50" xml:space="preserve">
        <g id="github_round-git">
            <path fill="crimson" d="m30.5 24.5c-1.031 0-2.016 0.188-3.047 0.328-0.812 0.125-1.625 0.172-2.453 0.172s-1.641-0.047-2.453-0.172c-1.016-0.14-2.016-0.328-3.047-0.328-2.547 0-4 2.109-4 4.5 0 4.781 4.375 5.516 8.188 5.516h2.625c3.813 0 8.188-0.734 8.188-5.516-0.001-2.391-1.454-4.5-4.001-4.5zm-10.5 7.5c-1.406 0-2-1.859-2-3s0.594-3 2-3 2 1.859 2 3-0.594 3-2 3zm10 0c-1.406 0-2-1.859-2-3s0.594-3 2-3 2 1.859 2 3-0.594 3-2 3z"/>
            <path fill="crimson" d="m25 0c-13.808 0-25 11.193-25 25s11.192 25 25 25 25-11.193 25-25-11.192-25-25-25zm12.047 31.422c-2.063 4.172-7.734 4.578-11.797 4.578-4.125 0-10.141-0.359-12.281-4.578-0.797-1.578-0.969-3.438-0.969-5.172 0-2.281 0.625-4.438 2.125-6.188-0.281-0.859-0.422-1.766-0.422-2.656 0-1.172 0.266-2.344 0.797-3.406 2.469 0 4.047 1.078 5.922 2.547 1.578-0.375 3.203-0.547 4.828-0.547 1.469 0 2.953 0.156 4.375 0.5 1.859-1.453 3.438-2.5 5.875-2.5 0.531 1.063 0.797 2.234 0.797 3.406 0 0.891-0.141 1.781-0.422 2.625 1.5 1.766 2.125 3.938 2.125 6.219 0 1.734-0.172 3.578-0.953 5.172z"/>
        </g>
    </svg>
    <svg xmlns:xlink="http://www.w3.org/1999/xlink" id="in_round" width="50" height="50" x="0px" y="50" enable-background="new 0 0 50 50" version="1.1" viewBox="0 0 50 50" xml:space="preserve">
        <path fill="crimson" d="m25 0c-13.808 0-25 11.193-25 25s11.192 25 25 25 25-11.193 25-25-11.192-25-25-25zm-5.547 34.136h-5.156v-15.485h5.156v15.485zm-2.578-17.594h-0.031c-1.734 0-2.844-1.188-2.844-2.672 0-1.516 1.156-2.672 2.906-2.672 1.766 0 2.859 1.156 2.875 2.672 0.016 1.484-1.109 2.672-2.906 2.672zm21.125 17.594h-5.141v-8.281c0-2.078-0.75-3.5-2.609-3.5-1.422 0-2.266 0.953-2.641 1.875-0.125 0.344-0.172 0.797-0.172 1.266v8.641h-5.141c0.063-14.031 0-15.484 0-15.484h5.141v2.204c0.678-1.061 1.898-2.563 4.641-2.563 3.391 0 5.922 2.219 5.922 6.969v8.873z"/>
    </svg>
    <svg xmlns:xlink="http://www.w3.org/1999/xlink" id="vk_round" width="50" height="50" x="0px" y="100" enable-background="new 0 0 50 50" version="1.1" viewBox="0 0 50 50" xml:space="preserve">
        <path fill="crimson" d="m25 0c-13.807 0-25 11.193-25 25s11.193 25 25 25 25-11.193 25-25-11.193-25-25-25zm11.76 28.255c2.406 2.234 2.906 3.313 2.984 3.453 0 0 1 1.75-1.109 1.766l-4 0.063c-0.859 0.172-2-0.609-2-0.609-1.5-1.031-2.906-3.703-4-3.359 0 0-1.125 0.359-1.094 2.766 0.016 0.516-0.234 0.797-0.234 0.797s-0.281 0.297-0.828 0.344h-1.797c-3.953 0.25-7.438-3.391-7.438-3.391s-3.813-3.938-7.156-11.797c-0.219-0.516 0.016-0.766 0.016-0.766s0.234-0.297 0.891-0.297l4.281-0.031c0.406 0.063 0.688 0.281 0.688 0.281s0.25 0.172 0.375 0.5c0.703 1.75 1.609 3.344 1.609 3.344 1.563 3.219 2.625 3.766 3.234 3.438 0 0 0.797-0.484 0.625-4.375-0.063-1.406-0.453-2.047-0.453-2.047-0.359-0.484-1.031-0.625-1.328-0.672-0.234-0.031 0.156-0.594 0.672-0.844 0.766-0.375 2.125-0.391 3.734-0.375 1.266 0.016 1.625 0.094 2.109 0.203 1.484 0.359 0.984 1.734 0.984 5.047 0 1.063-0.203 2.547 0.563 3.031 0.328 0.219 1.141 0.031 3.141-3.375 0 0 0.938-1.625 1.672-3.516 0.125-0.344 0.391-0.484 0.391-0.484s0.25-0.141 0.594-0.094l4.5-0.031c1.359-0.172 1.578 0.453 1.578 0.453 0.234 0.641-0.5 2.141-2.344 4.594-3.032 4.03-3.36 3.655-0.86 5.983z"/>
    </svg>
</svg>
